<?xml version="1.0" encoding="iso-8859-1"?>
<!-- Generator: Adobe Illustrator 19.0.0, SVG Export Plug-In . SVG Version: 6.00 Build 0)  -->
<svg xmlns="http://www.w3.org/2000/svg" xmlns:xlink="http://www.w3.org/1999/xlink" version="1.1" id="Capa_1" x="0px" y="0px" viewBox="0 0 512 512" style="enable-background:new 0 0 512 512;" xml:space="preserve" width="512px" height="512px">
<g>
	<g>
		<path d="M437.019,74.981C388.667,26.628,324.38,0,256,0S123.333,26.628,74.981,74.981S0,187.62,0,256    s26.628,132.667,74.981,181.019C123.333,485.372,187.62,512,256,512s132.667-26.628,181.019-74.981    C485.372,388.667,512,324.38,512,256S485.372,123.333,437.019,74.981z M426.714,426.714    C381.115,472.314,320.488,497.427,256,497.427s-125.115-25.113-170.714-70.713C39.685,381.115,14.573,320.488,14.573,256    S39.685,130.885,85.286,85.286C130.885,39.685,191.512,14.573,256,14.573s125.115,25.113,170.714,70.713    c45.599,45.599,70.713,106.227,70.713,170.714S472.314,381.115,426.714,426.714z" fill="#1b325f"/>
	</g>
</g>
<g>
	<g>
		<path d="M419.131,92.869c-43.14-43.14-100.498-66.899-161.508-66.899c-61.01,0-118.368,23.759-161.508,66.899    c-42.97,42.971-66.703,100.048-66.89,160.788c-0.001,0.116-0.009,0.23-0.009,0.346c0,0.041,0.003,0.081,0.003,0.122    c0,0.084-0.003,0.169-0.003,0.253c0,61.01,23.759,118.368,66.899,161.508c43.14,43.14,100.498,66.899,161.508,66.899    c61.01,0,118.368-23.759,161.508-66.899c43.14-43.14,66.899-100.498,66.899-161.508    C486.03,193.367,462.271,136.009,419.131,92.869z M423.984,120.013c25.692,31.688,41.578,69.662,46.111,110.171    c-4.97-3.73-11.142-5.942-17.821-5.942c-7.94,0-15.158,3.131-20.499,8.217c-4.392-32.964-17.874-63.091-37.836-87.778    c0.246,0.006,0.492,0.018,0.738,0.018c7.621,0,15.242-2.901,21.044-8.703C420.232,131.482,422.982,125.869,423.984,120.013z     M467.461,254.002c0,8.374-6.813,15.188-15.188,15.188s-15.188-6.813-15.188-15.188c0-8.374,6.813-15.188,15.188-15.188    C460.648,238.815,467.461,245.628,467.461,254.002z M418.767,256c0,89.751-73.018,162.767-162.767,162.767    c-89.751,0-162.767-73.018-162.767-162.767S166.249,93.233,256,93.233S418.767,166.249,418.767,256z M405.416,104.212    c5.921,5.922,5.921,15.557,0,21.478c-5.921,5.921-15.556,5.922-21.478,0c-5.921-5.922-5.921-15.557,0-21.478    c2.961-2.961,6.85-4.441,10.739-4.441C398.566,99.771,402.455,101.251,405.416,104.212z M285.385,57.353    c0-5.692-1.609-11.014-4.392-15.541c39.603,4.278,76.818,19.39,108.135,43.91c-5.68,1.072-11.108,3.798-15.496,8.185    c-6.113,6.114-9.002,14.247-8.674,22.27c-25.32-19.775-56.127-32.829-89.718-36.471C281.454,74.247,285.385,66.254,285.385,57.353    z M255.625,42.166c8.374,0,15.188,6.813,15.188,15.188c0,8.374-6.813,15.188-15.188,15.188c-8.374,0-15.188-6.813-15.188-15.188    C240.438,48.98,247.251,42.166,255.625,42.166z M229.96,42.316c-2.598,4.416-4.094,9.554-4.094,15.038    c-0.001,8.942,3.968,16.968,10.231,22.429c-33.68,3.78-64.539,17.02-89.839,37.008c0.504-8.221-2.37-16.615-8.639-22.884    c-3.591-3.591-7.88-6.068-12.433-7.436C155.568,62.41,191.567,47.246,229.96,42.316z M105.835,104.212    c2.961-2.961,6.85-4.441,10.74-4.441s7.778,1.48,10.739,4.441c5.921,5.921,5.921,15.556,0,21.478    c-5.922,5.922-15.557,5.921-21.478,0C99.914,119.768,99.914,110.133,105.835,104.212z M88.195,123.877    c1.387,4.436,3.828,8.61,7.335,12.117c5.802,5.802,13.423,8.703,21.044,8.703c0.502,0,1.004-0.014,1.505-0.04    c-20.101,24.851-33.641,55.215-37.944,88.44c-5.399-5.464-12.889-8.857-21.159-8.857c-4.867,0-9.461,1.183-13.521,3.263    C50.174,189.629,64.851,154.058,88.195,123.877z M43.796,253.883c0.065-8.319,6.847-15.069,15.182-15.069    c8.374,0,15.188,6.813,15.188,15.188c0,8.374-6.813,15.188-15.188,15.188c-8.35,0-15.145-6.774-15.184-15.115    C43.794,254.011,43.796,253.947,43.796,253.883z M95.53,372.009c-3.647,3.647-6.146,8.014-7.5,12.647    c-23.41-30.346-38.071-66.125-42.672-104.207c4.084,2.113,8.713,3.313,13.619,3.313c8.059,0,15.374-3.224,20.739-8.445    c3.576,32.857,16.162,63.043,35.231,88.038C107.878,363.739,100.92,366.622,95.53,372.009z M105.835,403.793    c-5.921-5.922-5.921-15.557,0-21.478c2.961-2.961,6.85-4.441,10.74-4.441c3.889,0,7.778,1.48,10.739,4.441    c5.921,5.922,5.921,15.557,0,21.478C121.391,409.715,111.756,409.714,105.835,403.793z M230.458,466.504    c-38.873-4.898-75.307-20.291-105.966-44.778c4.809-1.318,9.353-3.856,13.125-7.628c5.259-5.259,8.126-12.012,8.618-18.906    c24.432,19.308,54.046,32.327,86.381,36.605c-4.217,5.137-6.752,11.705-6.752,18.853    C225.865,456.475,227.554,461.91,230.458,466.504z M255.625,465.838c-8.374,0-15.188-6.813-15.188-15.188    s6.813-15.188,15.188-15.188c8.374,0,15.188,6.813,15.188,15.188S264,465.838,255.625,465.838z M280.476,466.998    c3.098-4.696,4.909-10.313,4.909-16.347c0.001-7.106-2.506-13.636-6.677-18.759c32.286-4.144,61.881-17.007,86.346-36.142    c0.604,6.699,3.461,13.232,8.578,18.349c4.586,4.586,10.309,7.352,16.269,8.312C358.286,447.399,320.602,462.762,280.476,466.998z     M405.416,403.793c-5.921,5.921-15.556,5.922-21.478,0c-5.921-5.922-5.921-15.557,0-21.478c2.961-2.961,6.85-4.441,10.739-4.441    c3.89,0,7.779,1.48,10.74,4.441C411.337,388.237,411.337,397.872,405.416,403.793z M415.721,372.009    c-5.208-5.208-11.882-8.072-18.706-8.604c18.965-24.84,31.524-54.814,35.196-87.443c5.295,4.841,12.34,7.801,20.063,7.801    c6.72,0,12.925-2.241,17.913-6.013c-4.404,40.762-20.294,78.985-46.097,110.861C423.179,382.532,420.392,376.681,415.721,372.009z    " fill="#1b325f"/>
	</g>
</g>
<g>
	<g>
		<path d="M256,131.099c-68.871,0-124.901,56.03-124.901,124.901S187.129,380.901,256,380.901S380.901,324.871,380.901,256    S324.871,131.099,256,131.099z M256,366.328c-60.835,0-110.328-49.493-110.328-110.328c0-60.835,49.493-110.328,110.328-110.328    S366.328,195.165,366.328,256S316.835,366.328,256,366.328z" fill="#1b325f"/>
	</g>
</g>
<g>
	<g>
		<path d="M256,160.815c-52.486,0-95.185,42.7-95.185,95.185s42.7,95.185,95.185,95.185c52.486,0,95.185-42.7,95.185-95.185    C351.185,203.515,308.486,160.815,256,160.815z M256,336.612c-44.45,0-80.612-36.162-80.612-80.612    c0-44.45,36.162-80.612,80.612-80.612S336.612,211.55,336.612,256S300.45,336.612,256,336.612z" fill="#1b325f"/>
	</g>
</g>
<g>
	<g>
		<rect x="248.134" y="392.797" width="14.983" height="14.573" fill="#1b325f"/>
	</g>
</g>
<g>
	<g>
		
			<rect x="350.107" y="350.57" transform="matrix(0.7071 -0.7071 0.7071 0.7071 -148.3047 357.6739)" width="14.983" height="14.573" fill="#1b325f"/>
	</g>
</g>
<g>
	<g>
		<rect x="392.548" y="248.384" width="14.573" height="14.983" fill="#1b325f"/>
	</g>
</g>
<g>
	<g>
		
			<rect x="350.307" y="146.414" transform="matrix(0.7071 -0.7071 0.7071 0.7071 -4.0906 297.9344)" width="14.573" height="14.983" fill="#1b325f"/>
	</g>
</g>
<g>
	<g>
		<rect x="248.134" y="104.38" width="14.983" height="14.573" fill="#1b325f"/>
	</g>
</g>
<g>
	<g>
		
			<rect x="146.168" y="146.613" transform="matrix(0.7071 -0.7071 0.7071 0.7071 -63.8174 153.7299)" width="14.983" height="14.573" fill="#1b325f"/>
	</g>
</g>
<g>
	<g>
		<rect x="104.13" y="248.384" width="14.573" height="14.983" fill="#1b325f"/>
	</g>
</g>
<g>
	<g>
		
			<rect x="146.365" y="350.361" transform="matrix(0.7071 -0.7071 0.7071 0.7071 -208.0362 213.4608)" width="14.573" height="14.983" fill="#1b325f"/>
	</g>
</g>
<g>
</g>
<g>
</g>
<g>
</g>
<g>
</g>
<g>
</g>
<g>
</g>
<g>
</g>
<g>
</g>
<g>
</g>
<g>
</g>
<g>
</g>
<g>
</g>
<g>
</g>
<g>
</g>
<g>
</g>
</svg>
